<?xml version="1.0" standalone="no"?>
<!DOCTYPE svg PUBLIC "-//W3C//DTD SVG 20010904//EN"
 "http://www.w3.org/TR/2001/REC-SVG-20010904/DTD/svg10.dtd">
<svg version="1.0" xmlns="http://www.w3.org/2000/svg"
 width="320.000000pt" height="320.000000pt" viewBox="0 0 320.000000 320.000000"
 preserveAspectRatio="xMidYMid meet">

<g transform="translate(0.000000,320.000000) scale(0.100000,-0.100000)"
fill="#000000" stroke="none">
<path d="M1210 2523 c-129 -22 -195 -86 -215 -206 -5 -34 -9 -38 -28 -33 -60
15 -160 -95 -209 -234 -51 -142 -15 -300 97 -427 53 -60 76 -100 68 -119 -3
-8 -43 -37 -89 -64 -157 -96 -176 -126 -184 -305 -7 -148 -14 -165 -78 -196
-51 -25 -79 -20 -124 20 -31 28 -33 28 -75 14 -23 -8 -56 -30 -73 -49 -73 -84
-7 -198 139 -241 62 -18 191 -13 248 9 26 10 42 10 78 0 64 -17 1644 -17 1691
0 26 9 45 9 91 -3 90 -22 217 -18 278 10 65 29 103 66 116 114 18 67 -19 133
-90 163 -47 20 -69 18 -103 -11 -38 -32 -112 -37 -154 -10 -19 12 -22 26 -27
122 -3 59 -10 125 -17 147 -19 62 -88 126 -192 180 -143 74 -155 89 -174 212
-8 52 -24 107 -45 150 -30 62 -33 78 -33 159 0 78 3 97 27 147 36 70 93 138
118 138 11 0 32 -21 56 -57 49 -72 83 -98 133 -98 53 0 89 29 125 100 25 50
30 72 30 130 -1 179 -146 275 -351 232 -86 -18 -143 -45 -207 -99 l-47 -40
-63 16 c-80 20 -183 20 -263 0 l-63 -15 -53 43 c-65 53 -134 84 -219 97 -66
11 -76 11 -119 4z m195 -93 c44 -17 75 -39 117 -81 l57 -58 48 22 c41 19 65
22 168 22 106 0 127 -3 174 -25 45 -20 55 -21 59 -10 9 30 96 103 151 128 73
33 205 37 263 8 95 -47 116 -202 39 -288 -40 -45 -70 -34 -115 41 -20 32 -47
66 -61 75 -81 53 -177 -27 -248 -206 -44 -109 -34 -217 32 -346 58 -113 -5
-235 -120 -234 -72 1 -120 41 -140 116 -13 49 -6 78 23 91 27 12 70 73 66 94
-9 48 -226 53 -244 6 -9 -22 25 -75 62 -97 28 -17 34 -26 34 -54 0 -49 -22
-95 -59 -127 -63 -53 -179 -29 -217 44 -23 45 -14 117 27 203 71 152 45 310
-78 464 -82 102 -152 90 -226 -39 -42 -74 -96 -75 -131 -2 -53 112 -15 232 86
270 48 18 162 10 233 -17z m-366 -324 l30 -59 79 -2 80 -1 26 56 c29 62 80
124 99 117 19 -6 102 -133 121 -186 11 -31 16 -70 14 -107 l-3 -59 -67 -14
c-42 -9 -68 -19 -68 -27 0 -20 12 -23 64 -13 27 5 52 7 54 4 3 -3 0 -16 -6
-30 -10 -22 -15 -24 -62 -18 -42 5 -50 3 -50 -10 0 -10 11 -19 28 -23 52 -11
55 -13 47 -37 -22 -64 -17 -121 16 -192 51 -110 51 -164 -5 -359 -55 -191 -57
-216 -16 -263 21 -23 30 -44 30 -68 0 -61 -5 -65 -82 -65 l-70 0 3 32 c4 57 0
74 -25 111 l-25 36 29 113 c23 94 26 115 15 127 -24 25 -43 4 -57 -60 -8 -35
-19 -64 -24 -66 -6 -2 -17 24 -25 58 -15 64 -39 93 -60 72 -12 -12 -9 -32 30
-178 13 -47 31 -90 45 -105 37 -40 48 -69 41 -106 l-6 -35 -72 3 c-71 3 -72 3
-69 30 5 43 -17 106 -46 133 -21 20 -34 51 -58 143 -26 101 -33 117 -52 120
-32 5 -32 -30 0 -146 11 -41 17 -76 14 -79 -3 -4 -17 -1 -31 5 -17 8 -25 20
-25 36 0 30 -16 42 -35 26 -23 -19 -18 -68 9 -95 22 -22 81 -45 118 -45 35 0
60 -68 42 -114 -9 -23 -221 -23 -266 0 -29 15 -35 15 -95 -5 -88 -29 -193 -28
-252 2 -81 42 -104 106 -48 136 21 11 28 9 62 -13 64 -44 159 -34 219 22 52
49 66 94 66 222 0 148 10 164 150 251 97 59 130 93 130 134 0 27 -39 95 -82
141 -42 45 -45 74 -9 74 31 0 51 11 51 27 0 13 -10 14 -58 9 -55 -6 -59 -5
-72 19 -7 14 -11 27 -9 30 3 2 32 0 64 -5 58 -9 84 -3 71 18 -3 6 -38 16 -76
22 -62 10 -71 15 -76 37 -17 67 43 226 114 301 l33 36 29 -30 c16 -16 43 -56
59 -88z m815 -684 c-17 -26 -59 -38 -89 -24 -40 19 -42 39 -4 78 l33 34 36
-35 c28 -29 33 -38 24 -53z m324 20 c29 -29 80 -65 132 -91 167 -85 181 -106
189 -291 l6 -124 43 -30 c61 -43 148 -48 215 -12 51 28 75 24 104 -13 34 -44
-15 -107 -101 -131 -64 -18 -181 -8 -234 19 l-41 21 -33 -20 c-29 -17 -51 -20
-175 -20 -140 0 -143 0 -158 24 -51 77 16 166 123 166 54 0 100 18 107 42 14
41 -22 118 -54 118 -25 0 -32 -21 -15 -51 23 -41 18 -49 -31 -49 -43 0 -45 1
-56 40 -10 33 -17 40 -33 38 -18 -3 -21 -9 -19 -50 2 -42 -1 -49 -26 -68 -16
-11 -40 -36 -52 -56 -18 -30 -21 -45 -15 -95 l6 -59 -110 0 -109 0 -7 36 c-14
73 7 103 94 135 42 15 49 43 29 133 -23 103 -34 128 -55 124 -24 -5 -26 -42
-3 -123 21 -76 16 -95 -24 -95 -12 0 -34 -9 -48 -20 -30 -24 -34 -24 -53 -5
-8 8 -33 19 -54 25 -47 13 -48 17 -20 119 23 83 21 104 -12 99 -19 -3 -26 -17
-47 -101 -23 -90 -24 -101 -10 -125 9 -17 30 -32 57 -41 56 -17 74 -46 70
-108 l-3 -48 -116 -3 -117 -3 -4 64 c-3 51 -10 72 -31 100 -15 20 -27 43 -27
52 0 15 11 60 72 280 10 39 18 94 16 125 -2 46 1 55 15 54 9 0 36 -1 60 -2 36
-2 45 -7 60 -32 46 -78 181 -79 221 -2 14 27 21 30 76 34 47 3 69 11 103 35
23 17 43 32 45 32 2 1 24 -21 50 -47z"/>
<path d="M1632 1958 c-21 -21 -15 -68 11 -77 44 -17 86 39 57 75 -15 17 -52
18 -68 2z"/>
<path d="M1892 1958 c-32 -32 5 -92 49 -81 31 8 44 51 23 74 -19 22 -54 25
-72 7z"/>
<path d="M986 1955 c-19 -20 -20 -36 -3 -57 20 -25 45 -28 69 -9 19 16 21 23
13 47 -12 34 -54 44 -79 19z"/>
<path d="M1252 1958 c-19 -19 -14 -55 10 -72 19 -13 25 -14 43 -2 24 16 31 51
15 72 -15 17 -52 18 -68 2z"/>
<path d="M1095 1850 c-4 -7 2 -25 14 -41 26 -35 27 -65 2 -79 -26 -14 -49 -3
-67 31 -8 16 -19 29 -23 29 -26 0 -14 -63 17 -86 22 -17 84 -18 100 -2 10 10
17 10 32 0 35 -22 86 -15 110 15 21 27 24 63 5 65 -5 0 -15 -10 -22 -22 -16
-32 -39 -43 -62 -31 -27 15 -33 49 -11 69 10 9 20 26 22 37 3 18 -3 20 -54 23
-34 2 -59 -1 -63 -8z"/>
</g>
</svg>
